<svg xmlns="http://www.w3.org/2000/svg" viewBox="0 0 256 256" role="img" aria-label="KS logo favicon">
  <rect width="256" height="256" fill="#f2f3f5" />
  <g transform="translate(1 53)">
    <g transform="translate(0.000000,150.000000) scale(0.100000,-0.100000)" fill="#1b3c59" stroke="none">
      <path d="M10 745 l0 -715 145 0 145 0 0 216 0 216 112 117 c61 64 114 117 117
119 3 1 94 -149 201 -333 l195 -334 188 -1 c148 0 187 3 181 13 -4 6 -129 199
-278 427 -148 228 -270 423 -270 432 -1 9 98 119 220 245 121 125 237 247 258
271 l38 42 -193 0 -194 -1 -285 -311 -285 -311 -3 311 -2 312 -145 0 -145 0 0
-715z" />
    </g>
    <g transform="translate(0.000000,150.000000) scale(0.100000,-0.100000)" fill="#dfac4e" stroke="none">
      <path d="M1802 1480 c-240 -44 -374 -186 -374 -395 0 -103 25 -172 91 -246 80
-89 169 -129 456 -204 76 -20 155 -45 175 -55 136 -70 122 -223 -26 -296 -49
-24 -68 -27 -148 -27 -173 0 -259 60 -307 213 -16 53 -18 55 -50 53 -52 -4
-244 -24 -246 -26 -9 -9 35 -158 64 -217 67 -138 175 -217 347 -255 63 -14
107 -17 220 -12 150 6 215 19 305 63 156 77 247 259 221 445 -17 118 -57 193
-141 259 -66 52 -163 90 -369 145 -96 26 -198 58 -228 72 -119 56 -122 162 -6
219 104 51 269 40 342 -21 32 -26 72 -102 72 -134 0 -18 7 -19 138 -14 75 2
142 6 148 8 19 5 -3 121 -36 189 -50 106 -151 184 -286 220 -71 20 -288 29
-362 16z" />
    </g>
  </g>
</svg>
